<mxfile host="Electron" agent="Mozilla/5.0 (X11; Linux x86_64) AppleWebKit/537.36 (KHTML, like Gecko) draw.io/27.0.2 Chrome/134.0.6998.205 Electron/35.3.0 Safari/537.36" version="27.0.2">
  <diagram name="第 1 页" id="Tpjfd2NYLwCAwLF0lQr-">
    <mxGraphModel dx="3886" dy="2409" grid="1" gridSize="10" guides="1" tooltips="1" connect="1" arrows="1" fold="1" page="1" pageScale="1" pageWidth="827" pageHeight="1169" math="0" shadow="0">
      <root>
        <mxCell id="0" />
        <mxCell id="1" parent="0" />
        <mxCell id="QcjXzTzvLksY9jFo9eeE-5" value="&lt;span style=&quot;font-size: 11px; text-wrap-mode: nowrap; background-color: rgb(255, 255, 255);&quot;&gt;writer_&lt;/span&gt;:DataWriter" style="shape=umlLifeline;perimeter=lifelinePerimeter;whiteSpace=wrap;html=1;container=1;dropTarget=0;collapsible=0;recursiveResize=0;outlineConnect=0;portConstraint=eastwest;newEdgeStyle={&quot;curved&quot;:0,&quot;rounded&quot;:0};" parent="1" vertex="1">
          <mxGeometry x="190" y="200" width="100" height="300" as="geometry" />
        </mxCell>
        <mxCell id="QcjXzTzvLksY9jFo9eeE-7" value="" style="html=1;points=[[0,0,0,0,5],[0,1,0,0,-5],[1,0,0,0,5],[1,1,0,0,-5]];perimeter=orthogonalPerimeter;outlineConnect=0;targetShapes=umlLifeline;portConstraint=eastwest;newEdgeStyle={&quot;curved&quot;:0,&quot;rounded&quot;:0};" parent="QcjXzTzvLksY9jFo9eeE-5" vertex="1">
          <mxGeometry x="45" y="70.00000000000011" width="10" height="80" as="geometry" />
        </mxCell>
        <mxCell id="QcjXzTzvLksY9jFo9eeE-6" value="writer_-&amp;gt;write(&amp;amp;hello_)" style="html=1;verticalAlign=bottom;endArrow=block;curved=0;rounded=0;" parent="1" source="bo4RvR0ZCLWzbLEnOBEk-2" target="QcjXzTzvLksY9jFo9eeE-7" edge="1">
          <mxGeometry width="80" relative="1" as="geometry">
            <mxPoint x="79.92857142857144" y="290" as="sourcePoint" />
            <mxPoint x="180" y="310" as="targetPoint" />
            <Array as="points">
              <mxPoint x="160" y="290" />
            </Array>
          </mxGeometry>
        </mxCell>
        <mxCell id="QcjXzTzvLksY9jFo9eeE-8" value="&lt;span style=&quot;font-size: 11px; text-wrap-mode: nowrap; background-color: rgb(255, 255, 255);&quot;&gt;impl_&lt;/span&gt;:DataWriterImpl" style="shape=umlLifeline;perimeter=lifelinePerimeter;whiteSpace=wrap;html=1;container=1;dropTarget=0;collapsible=0;recursiveResize=0;outlineConnect=0;portConstraint=eastwest;newEdgeStyle={&quot;curved&quot;:0,&quot;rounded&quot;:0};" parent="1" vertex="1">
          <mxGeometry x="340" y="200" width="116" height="500" as="geometry" />
        </mxCell>
        <mxCell id="QcjXzTzvLksY9jFo9eeE-9" value="" style="html=1;points=[[0,0,0,0,5],[0,1,0,0,-5],[1,0,0,0,5],[1,1,0,0,-5]];perimeter=orthogonalPerimeter;outlineConnect=0;targetShapes=umlLifeline;portConstraint=eastwest;newEdgeStyle={&quot;curved&quot;:0,&quot;rounded&quot;:0};" parent="QcjXzTzvLksY9jFo9eeE-8" vertex="1">
          <mxGeometry x="53" y="90" width="10" height="240" as="geometry" />
        </mxCell>
        <mxCell id="QcjXzTzvLksY9jFo9eeE-13" value="create_new_change(ALIVE, data)" style="html=1;align=left;spacingLeft=2;endArrow=block;rounded=0;edgeStyle=orthogonalEdgeStyle;curved=0;rounded=0;" parent="QcjXzTzvLksY9jFo9eeE-8" edge="1">
          <mxGeometry relative="1" as="geometry">
            <mxPoint x="63" y="130.0044827586207" as="sourcePoint" />
            <Array as="points">
              <mxPoint x="96" y="129.97" />
              <mxPoint x="96" y="159.97" />
            </Array>
            <mxPoint x="63" y="160.0044827586207" as="targetPoint" />
          </mxGeometry>
        </mxCell>
        <mxCell id="QcjXzTzvLksY9jFo9eeE-10" value="impl_-&amp;gt;write(data)" style="html=1;verticalAlign=bottom;endArrow=block;curved=0;rounded=0;" parent="1" source="QcjXzTzvLksY9jFo9eeE-7" target="QcjXzTzvLksY9jFo9eeE-9" edge="1">
          <mxGeometry width="80" relative="1" as="geometry">
            <mxPoint x="280" y="370" as="sourcePoint" />
            <mxPoint x="410" y="370.0000000000001" as="targetPoint" />
          </mxGeometry>
        </mxCell>
        <mxCell id="QcjXzTzvLksY9jFo9eeE-14" value=":TransportInterface&lt;div&gt;(UDPTransportInterface)&lt;/div&gt;" style="shape=umlLifeline;perimeter=lifelinePerimeter;whiteSpace=wrap;html=1;container=1;dropTarget=0;collapsible=0;recursiveResize=0;outlineConnect=0;portConstraint=eastwest;newEdgeStyle={&quot;curved&quot;:0,&quot;rounded&quot;:0};" parent="1" vertex="1">
          <mxGeometry x="1890" y="200" width="170" height="1120" as="geometry" />
        </mxCell>
        <mxCell id="QcjXzTzvLksY9jFo9eeE-73" value="" style="html=1;points=[[0,0,0,0,5],[0,1,0,0,-5],[1,0,0,0,5],[1,1,0,0,-5]];perimeter=orthogonalPerimeter;outlineConnect=0;targetShapes=umlLifeline;portConstraint=eastwest;newEdgeStyle={&quot;curved&quot;:0,&quot;rounded&quot;:0};" parent="QcjXzTzvLksY9jFo9eeE-14" vertex="1">
          <mxGeometry x="80" y="1020" width="10" height="80" as="geometry" />
        </mxCell>
        <mxCell id="QcjXzTzvLksY9jFo9eeE-15" value=":SenderResource&lt;div&gt;(UDPSenderResource)&lt;/div&gt;" style="shape=umlLifeline;perimeter=lifelinePerimeter;whiteSpace=wrap;html=1;container=1;dropTarget=0;collapsible=0;recursiveResize=0;outlineConnect=0;portConstraint=eastwest;newEdgeStyle={&quot;curved&quot;:0,&quot;rounded&quot;:0};" parent="1" vertex="1">
          <mxGeometry x="1720" y="200" width="140" height="1170" as="geometry" />
        </mxCell>
        <mxCell id="QcjXzTzvLksY9jFo9eeE-18" value="" style="html=1;points=[[0,0,0,0,5],[0,1,0,0,-5],[1,0,0,0,5],[1,1,0,0,-5]];perimeter=orthogonalPerimeter;outlineConnect=0;targetShapes=umlLifeline;portConstraint=eastwest;newEdgeStyle={&quot;curved&quot;:0,&quot;rounded&quot;:0};" parent="QcjXzTzvLksY9jFo9eeE-15" vertex="1">
          <mxGeometry x="65" y="980" width="10" height="70" as="geometry" />
        </mxCell>
        <mxCell id="QcjXzTzvLksY9jFo9eeE-16" value=":RTPSParticipantImpl" style="shape=umlLifeline;perimeter=lifelinePerimeter;whiteSpace=wrap;html=1;container=1;dropTarget=0;collapsible=0;recursiveResize=0;outlineConnect=0;portConstraint=eastwest;newEdgeStyle={&quot;curved&quot;:0,&quot;rounded&quot;:0};" parent="1" vertex="1">
          <mxGeometry x="1530" y="200" width="160" height="1060" as="geometry" />
        </mxCell>
        <mxCell id="QcjXzTzvLksY9jFo9eeE-17" value="" style="html=1;points=[[0,0,0,0,5],[0,1,0,0,-5],[1,0,0,0,5],[1,1,0,0,-5]];perimeter=orthogonalPerimeter;outlineConnect=0;targetShapes=umlLifeline;portConstraint=eastwest;newEdgeStyle={&quot;curved&quot;:0,&quot;rounded&quot;:0};" parent="QcjXzTzvLksY9jFo9eeE-16" vertex="1">
          <mxGeometry x="75" y="950" width="10" height="70" as="geometry" />
        </mxCell>
        <mxCell id="QcjXzTzvLksY9jFo9eeE-24" value=":eProsimaUDPSocket" style="shape=umlLifeline;perimeter=lifelinePerimeter;whiteSpace=wrap;html=1;container=1;dropTarget=0;collapsible=0;recursiveResize=0;outlineConnect=0;portConstraint=eastwest;newEdgeStyle={&quot;curved&quot;:0,&quot;rounded&quot;:0};" parent="1" vertex="1">
          <mxGeometry x="2090" y="200" width="130" height="1160" as="geometry" />
        </mxCell>
        <mxCell id="QcjXzTzvLksY9jFo9eeE-75" value="" style="html=1;points=[[0,0,0,0,5],[0,1,0,0,-5],[1,0,0,0,5],[1,1,0,0,-5]];perimeter=orthogonalPerimeter;outlineConnect=0;targetShapes=umlLifeline;portConstraint=eastwest;newEdgeStyle={&quot;curved&quot;:0,&quot;rounded&quot;:0};" parent="QcjXzTzvLksY9jFo9eeE-24" vertex="1">
          <mxGeometry x="60" y="1080" width="10" height="40" as="geometry" />
        </mxCell>
        <mxCell id="QcjXzTzvLksY9jFo9eeE-26" value="typedef asio::ip::udp::socket eProsimaUDPSocket;" style="text;align=center;fontStyle=1;verticalAlign=middle;spacingLeft=3;spacingRight=3;strokeColor=none;rotatable=0;points=[[0,0.5],[1,0.5]];portConstraint=eastwest;html=1;" parent="1" vertex="1">
          <mxGeometry x="2240" y="160" width="80" height="26" as="geometry" />
        </mxCell>
        <mxCell id="QcjXzTzvLksY9jFo9eeE-29" value=":RTPSWriter&lt;div&gt;(StatefulWriter)&lt;/div&gt;" style="shape=umlLifeline;perimeter=lifelinePerimeter;whiteSpace=wrap;html=1;container=1;dropTarget=0;collapsible=0;recursiveResize=0;outlineConnect=0;portConstraint=eastwest;newEdgeStyle={&quot;curved&quot;:0,&quot;rounded&quot;:0};" parent="1" vertex="1">
          <mxGeometry x="720" y="200" width="100" height="1000" as="geometry" />
        </mxCell>
        <mxCell id="QcjXzTzvLksY9jFo9eeE-32" value="" style="html=1;points=[[0,0,0,0,5],[0,1,0,0,-5],[1,0,0,0,5],[1,1,0,0,-5]];perimeter=orthogonalPerimeter;outlineConnect=0;targetShapes=umlLifeline;portConstraint=eastwest;newEdgeStyle={&quot;curved&quot;:0,&quot;rounded&quot;:0};" parent="QcjXzTzvLksY9jFo9eeE-29" vertex="1">
          <mxGeometry x="45" y="230" width="10" height="30" as="geometry" />
        </mxCell>
        <mxCell id="QcjXzTzvLksY9jFo9eeE-30" value="" style="html=1;points=[[0,0,0,0,5],[0,1,0,0,-5],[1,0,0,0,5],[1,1,0,0,-5]];perimeter=orthogonalPerimeter;outlineConnect=0;targetShapes=umlLifeline;portConstraint=eastwest;newEdgeStyle={&quot;curved&quot;:0,&quot;rounded&quot;:0};" parent="QcjXzTzvLksY9jFo9eeE-29" vertex="1">
          <mxGeometry x="45" y="380" width="10" height="90" as="geometry" />
        </mxCell>
        <mxCell id="QcjXzTzvLksY9jFo9eeE-57" value="" style="html=1;points=[[0,0,0,0,5],[0,1,0,0,-5],[1,0,0,0,5],[1,1,0,0,-5]];perimeter=orthogonalPerimeter;outlineConnect=0;targetShapes=umlLifeline;portConstraint=eastwest;newEdgeStyle={&quot;curved&quot;:0,&quot;rounded&quot;:0};" parent="QcjXzTzvLksY9jFo9eeE-29" vertex="1">
          <mxGeometry x="45" y="580" width="10" height="120" as="geometry" />
        </mxCell>
        <mxCell id="QcjXzTzvLksY9jFo9eeE-61" value="deliver_sample_to_network(cache_change, group, locator_selector, max_blocking_time)" style="html=1;align=left;spacingLeft=2;endArrow=block;rounded=0;edgeStyle=orthogonalEdgeStyle;curved=0;rounded=0;" parent="QcjXzTzvLksY9jFo9eeE-29" source="QcjXzTzvLksY9jFo9eeE-57" target="QcjXzTzvLksY9jFo9eeE-57" edge="1">
          <mxGeometry x="1" y="-66" relative="1" as="geometry">
            <mxPoint x="70" y="630" as="sourcePoint" />
            <Array as="points">
              <mxPoint x="90" y="630" />
              <mxPoint x="90" y="660" />
            </Array>
            <mxPoint x="75" y="660.0344827586207" as="targetPoint" />
            <mxPoint x="-65" y="56" as="offset" />
          </mxGeometry>
        </mxCell>
        <mxCell id="QcjXzTzvLksY9jFo9eeE-72" value="" style="html=1;points=[[0,0,0,0,5],[0,1,0,0,-5],[1,0,0,0,5],[1,1,0,0,-5]];perimeter=orthogonalPerimeter;outlineConnect=0;targetShapes=umlLifeline;portConstraint=eastwest;newEdgeStyle={&quot;curved&quot;:0,&quot;rounded&quot;:0};" parent="QcjXzTzvLksY9jFo9eeE-29" vertex="1">
          <mxGeometry x="45" y="900" width="10" height="80" as="geometry" />
        </mxCell>
        <mxCell id="QcjXzTzvLksY9jFo9eeE-33" value="type_-&amp;gt;serialize(data, &amp;amp;payload.payload)" style="html=1;verticalAlign=bottom;endArrow=block;curved=0;rounded=0;" parent="1" source="QcjXzTzvLksY9jFo9eeE-9" target="QcjXzTzvLksY9jFo9eeE-35" edge="1">
          <mxGeometry width="80" relative="1" as="geometry">
            <mxPoint x="427" y="470" as="sourcePoint" />
            <mxPoint x="520" y="470" as="targetPoint" />
            <Array as="points">
              <mxPoint x="580" y="390" />
            </Array>
          </mxGeometry>
        </mxCell>
        <mxCell id="QcjXzTzvLksY9jFo9eeE-34" value="type_:HelloWorldPubSubType" style="shape=umlLifeline;perimeter=lifelinePerimeter;whiteSpace=wrap;html=1;container=1;dropTarget=0;collapsible=0;recursiveResize=0;outlineConnect=0;portConstraint=eastwest;newEdgeStyle={&quot;curved&quot;:0,&quot;rounded&quot;:0};" parent="1" vertex="1">
          <mxGeometry x="500" y="200" width="170" height="330" as="geometry" />
        </mxCell>
        <mxCell id="QcjXzTzvLksY9jFo9eeE-35" value="" style="html=1;points=[[0,0,0,0,5],[0,1,0,0,-5],[1,0,0,0,5],[1,1,0,0,-5]];perimeter=orthogonalPerimeter;outlineConnect=0;targetShapes=umlLifeline;portConstraint=eastwest;newEdgeStyle={&quot;curved&quot;:0,&quot;rounded&quot;:0};" parent="QcjXzTzvLksY9jFo9eeE-34" vertex="1">
          <mxGeometry x="80" y="170" width="10" height="40" as="geometry" />
        </mxCell>
        <mxCell id="QcjXzTzvLksY9jFo9eeE-36" value="writer_-&amp;gt;new_change(change_kind, handle)" style="html=1;verticalAlign=bottom;endArrow=block;curved=0;rounded=0;" parent="1" target="QcjXzTzvLksY9jFo9eeE-32" edge="1">
          <mxGeometry width="80" relative="1" as="geometry">
            <mxPoint x="402.9999999999998" y="440.0000000000001" as="sourcePoint" />
            <mxPoint x="750" y="440" as="targetPoint" />
          </mxGeometry>
        </mxCell>
        <mxCell id="QcjXzTzvLksY9jFo9eeE-31" value="participant-&amp;gt;sendSync(message, m_guid, locator_selector.locator_selector.begin(), locator_selector.locator_selector.end(), max_blocking_time_point)" style="html=1;verticalAlign=bottom;endArrow=block;curved=0;rounded=0;" parent="1" source="QcjXzTzvLksY9jFo9eeE-72" target="QcjXzTzvLksY9jFo9eeE-17" edge="1">
          <mxGeometry width="80" relative="1" as="geometry">
            <mxPoint x="1110" y="1169" as="sourcePoint" />
            <mxPoint x="1500" y="1169" as="targetPoint" />
            <Array as="points">
              <mxPoint x="1295" y="1169" />
            </Array>
          </mxGeometry>
        </mxCell>
        <mxCell id="QcjXzTzvLksY9jFo9eeE-37" value=":DataWriterHistory" style="shape=umlLifeline;perimeter=lifelinePerimeter;whiteSpace=wrap;html=1;container=1;dropTarget=0;collapsible=0;recursiveResize=0;outlineConnect=0;portConstraint=eastwest;newEdgeStyle={&quot;curved&quot;:0,&quot;rounded&quot;:0};" parent="1" vertex="1">
          <mxGeometry x="880" y="200" width="100" height="640" as="geometry" />
        </mxCell>
        <mxCell id="QcjXzTzvLksY9jFo9eeE-38" value="" style="html=1;points=[[0,0,0,0,5],[0,1,0,0,-5],[1,0,0,0,5],[1,1,0,0,-5]];perimeter=orthogonalPerimeter;outlineConnect=0;targetShapes=umlLifeline;portConstraint=eastwest;newEdgeStyle={&quot;curved&quot;:0,&quot;rounded&quot;:0};" parent="QcjXzTzvLksY9jFo9eeE-37" vertex="1">
          <mxGeometry x="45" y="250" width="10" height="170" as="geometry" />
        </mxCell>
        <mxCell id="QcjXzTzvLksY9jFo9eeE-43" value="prepare_and_add_change(a_change, wparams)" style="html=1;align=left;spacingLeft=2;endArrow=block;rounded=0;edgeStyle=orthogonalEdgeStyle;curved=0;rounded=0;" parent="QcjXzTzvLksY9jFo9eeE-37" edge="1">
          <mxGeometry relative="1" as="geometry">
            <mxPoint x="55" y="290" as="sourcePoint" />
            <Array as="points">
              <mxPoint x="90" y="290" />
              <mxPoint x="90" y="320" />
            </Array>
            <mxPoint x="55" y="320" as="targetPoint" />
          </mxGeometry>
        </mxCell>
        <mxCell id="QcjXzTzvLksY9jFo9eeE-48" value="notify_writer(a_change, max_blocking_time)" style="html=1;align=left;spacingLeft=2;endArrow=block;rounded=0;edgeStyle=orthogonalEdgeStyle;curved=0;rounded=0;" parent="QcjXzTzvLksY9jFo9eeE-37" source="QcjXzTzvLksY9jFo9eeE-38" target="QcjXzTzvLksY9jFo9eeE-38" edge="1">
          <mxGeometry relative="1" as="geometry">
            <mxPoint x="60" y="340" as="sourcePoint" />
            <Array as="points">
              <mxPoint x="90" y="340" />
              <mxPoint x="90" y="370" />
            </Array>
            <mxPoint x="65" y="370.0344827586207" as="targetPoint" />
          </mxGeometry>
        </mxCell>
        <mxCell id="QcjXzTzvLksY9jFo9eeE-39" value="history_.add_pub_change_with_commit_hook(ch, wparams, filter_hook, lock, max_blocking_time)" style="html=1;verticalAlign=bottom;endArrow=block;curved=0;rounded=0;" parent="1" target="QcjXzTzvLksY9jFo9eeE-38" edge="1">
          <mxGeometry width="80" relative="1" as="geometry">
            <mxPoint x="403" y="480" as="sourcePoint" />
            <mxPoint x="900" y="480" as="targetPoint" />
          </mxGeometry>
        </mxCell>
        <mxCell id="QcjXzTzvLksY9jFo9eeE-19" value="send_resource-&amp;gt;send(msg-&amp;gt;buffer, msg-&amp;gt;length, &amp;amp;locators_begin, &amp;amp;locators_end, max_blocking_time_point)" style="html=1;verticalAlign=bottom;endArrow=block;curved=0;rounded=0;" parent="1" edge="1">
          <mxGeometry x="-0.002" width="80" relative="1" as="geometry">
            <mxPoint x="1615" y="1199.43" as="sourcePoint" />
            <mxPoint x="1785" y="1199.43" as="targetPoint" />
            <mxPoint as="offset" />
          </mxGeometry>
        </mxCell>
        <mxCell id="QcjXzTzvLksY9jFo9eeE-46" value="mp_writer-&amp;gt;unsent_change_added_to_history(a_change, max_blocking_time)" style="html=1;verticalAlign=bottom;endArrow=block;curved=0;rounded=0;" parent="1" edge="1">
          <mxGeometry width="80" relative="1" as="geometry">
            <mxPoint x="925" y="600" as="sourcePoint" />
            <mxPoint x="775" y="600" as="targetPoint" />
          </mxGeometry>
        </mxCell>
        <mxCell id="QcjXzTzvLksY9jFo9eeE-49" value=":FlowControllerImpl" style="shape=umlLifeline;perimeter=lifelinePerimeter;whiteSpace=wrap;html=1;container=1;dropTarget=0;collapsible=0;recursiveResize=0;outlineConnect=0;portConstraint=eastwest;newEdgeStyle={&quot;curved&quot;:0,&quot;rounded&quot;:0};" parent="1" vertex="1">
          <mxGeometry x="1040" y="200" width="110" height="840" as="geometry" />
        </mxCell>
        <mxCell id="QcjXzTzvLksY9jFo9eeE-63" value="" style="html=1;points=[[0,0,0,0,5],[0,1,0,0,-5],[1,0,0,0,5],[1,1,0,0,-5]];perimeter=orthogonalPerimeter;outlineConnect=0;targetShapes=umlLifeline;portConstraint=eastwest;newEdgeStyle={&quot;curved&quot;:0,&quot;rounded&quot;:0};" parent="QcjXzTzvLksY9jFo9eeE-49" vertex="1">
          <mxGeometry x="50" y="760" width="10" height="40" as="geometry" />
        </mxCell>
        <mxCell id="QcjXzTzvLksY9jFo9eeE-50" value="" style="html=1;points=[[0,0,0,0,5],[0,1,0,0,-5],[1,0,0,0,5],[1,1,0,0,-5]];perimeter=orthogonalPerimeter;outlineConnect=0;targetShapes=umlLifeline;portConstraint=eastwest;newEdgeStyle={&quot;curved&quot;:0,&quot;rounded&quot;:0};" parent="QcjXzTzvLksY9jFo9eeE-49" vertex="1">
          <mxGeometry x="50" y="450" width="10" height="160" as="geometry" />
        </mxCell>
        <mxCell id="QcjXzTzvLksY9jFo9eeE-53" value="add_new_sample_impl(writer, change, max_blocking_time)" style="html=1;align=left;spacingLeft=2;endArrow=block;rounded=0;edgeStyle=orthogonalEdgeStyle;curved=0;rounded=0;" parent="QcjXzTzvLksY9jFo9eeE-49" source="QcjXzTzvLksY9jFo9eeE-50" target="QcjXzTzvLksY9jFo9eeE-50" edge="1">
          <mxGeometry x="-1" y="-41" relative="1" as="geometry">
            <mxPoint x="130" y="480" as="sourcePoint" />
            <Array as="points">
              <mxPoint x="120" y="480" />
              <mxPoint x="120" y="510" />
            </Array>
            <mxPoint x="135" y="510.0344827586207" as="targetPoint" />
            <mxPoint x="-40" y="-31" as="offset" />
          </mxGeometry>
        </mxCell>
        <mxCell id="QcjXzTzvLksY9jFo9eeE-51" value="flow_controller_-&amp;gt;add_new_sample(this, change, max_blocking_time)" style="html=1;verticalAlign=bottom;endArrow=block;curved=0;rounded=0;" parent="1" source="QcjXzTzvLksY9jFo9eeE-30" target="QcjXzTzvLksY9jFo9eeE-50" edge="1">
          <mxGeometry width="80" relative="1" as="geometry">
            <mxPoint x="805" y="660" as="sourcePoint" />
            <mxPoint x="1070" y="660" as="targetPoint" />
          </mxGeometry>
        </mxCell>
        <mxCell id="QcjXzTzvLksY9jFo9eeE-54" value=":RTPSMessageGroup" style="shape=umlLifeline;perimeter=lifelinePerimeter;whiteSpace=wrap;html=1;container=1;dropTarget=0;collapsible=0;recursiveResize=0;outlineConnect=0;portConstraint=eastwest;newEdgeStyle={&quot;curved&quot;:0,&quot;rounded&quot;:0};" parent="1" vertex="1">
          <mxGeometry x="1210" y="730" width="140" height="410" as="geometry" />
        </mxCell>
        <mxCell id="QcjXzTzvLksY9jFo9eeE-60" value="" style="html=1;points=[[0,0,0,0,5],[0,1,0,0,-5],[1,0,0,0,5],[1,1,0,0,-5]];perimeter=orthogonalPerimeter;outlineConnect=0;targetShapes=umlLifeline;portConstraint=eastwest;newEdgeStyle={&quot;curved&quot;:0,&quot;rounded&quot;:0};" parent="QcjXzTzvLksY9jFo9eeE-54" vertex="1">
          <mxGeometry x="65" y="150" width="10" height="40" as="geometry" />
        </mxCell>
        <mxCell id="QcjXzTzvLksY9jFo9eeE-64" value="" style="html=1;points=[[0,0,0,0,5],[0,1,0,0,-5],[1,0,0,0,5],[1,1,0,0,-5]];perimeter=orthogonalPerimeter;outlineConnect=0;targetShapes=umlLifeline;portConstraint=eastwest;newEdgeStyle={&quot;curved&quot;:0,&quot;rounded&quot;:0};" parent="QcjXzTzvLksY9jFo9eeE-54" vertex="1">
          <mxGeometry x="65" y="240" width="10" height="130" as="geometry" />
        </mxCell>
        <mxCell id="QcjXzTzvLksY9jFo9eeE-67" value="send()" style="html=1;align=left;spacingLeft=2;endArrow=block;rounded=0;edgeStyle=orthogonalEdgeStyle;curved=0;rounded=0;" parent="QcjXzTzvLksY9jFo9eeE-54" source="QcjXzTzvLksY9jFo9eeE-64" target="QcjXzTzvLksY9jFo9eeE-64" edge="1">
          <mxGeometry relative="1" as="geometry">
            <mxPoint x="80" y="279.94000000000005" as="sourcePoint" />
            <Array as="points">
              <mxPoint x="110" y="280" />
              <mxPoint x="110" y="310" />
            </Array>
            <mxPoint x="85" y="309.97448275862075" as="targetPoint" />
          </mxGeometry>
        </mxCell>
        <mxCell id="QcjXzTzvLksY9jFo9eeE-55" value="group(participant_, writer, &amp;amp;locator_selector)" style="html=1;verticalAlign=bottom;endArrow=block;curved=0;rounded=0;" parent="1" source="QcjXzTzvLksY9jFo9eeE-50" edge="1">
          <mxGeometry x="-0.3333" y="10" width="80" relative="1" as="geometry">
            <mxPoint x="1120" y="750" as="sourcePoint" />
            <mxPoint x="1210" y="750" as="targetPoint" />
            <mxPoint as="offset" />
          </mxGeometry>
        </mxCell>
        <mxCell id="QcjXzTzvLksY9jFo9eeE-59" value="writer-&amp;gt;deliver_sample_nts(change, group, locator_selector, max_blocking_time)" style="html=1;verticalAlign=bottom;endArrow=block;curved=0;rounded=0;" parent="1" edge="1">
          <mxGeometry width="80" relative="1" as="geometry">
            <mxPoint x="1087.5" y="800" as="sourcePoint" />
            <mxPoint x="772.5" y="800" as="targetPoint" />
          </mxGeometry>
        </mxCell>
        <mxCell id="QcjXzTzvLksY9jFo9eeE-62" value="group.add_data(*change, inline_qos)" style="html=1;verticalAlign=bottom;endArrow=block;curved=0;rounded=0;" parent="1" edge="1">
          <mxGeometry width="80" relative="1" as="geometry">
            <mxPoint x="775" y="890" as="sourcePoint" />
            <mxPoint x="1275" y="890" as="targetPoint" />
          </mxGeometry>
        </mxCell>
        <mxCell id="QcjXzTzvLksY9jFo9eeE-65" value="RTPSMessageGroup::~RTPSMessageGroup()" style="html=1;verticalAlign=bottom;endArrow=block;curved=0;rounded=0;" parent="1" edge="1">
          <mxGeometry width="80" relative="1" as="geometry">
            <mxPoint x="1100" y="990" as="sourcePoint" />
            <mxPoint x="1275" y="990" as="targetPoint" />
          </mxGeometry>
        </mxCell>
        <mxCell id="QcjXzTzvLksY9jFo9eeE-68" value=":RTPSMessageSenderInterface&lt;div&gt;(LocatorSelectorSender)&lt;/div&gt;" style="shape=umlLifeline;perimeter=lifelinePerimeter;whiteSpace=wrap;html=1;container=1;dropTarget=0;collapsible=0;recursiveResize=0;outlineConnect=0;portConstraint=eastwest;newEdgeStyle={&quot;curved&quot;:0,&quot;rounded&quot;:0};" parent="1" vertex="1">
          <mxGeometry x="1310" y="200" width="190" height="1010" as="geometry" />
        </mxCell>
        <mxCell id="QcjXzTzvLksY9jFo9eeE-69" value="" style="html=1;points=[[0,0,0,0,5],[0,1,0,0,-5],[1,0,0,0,5],[1,1,0,0,-5]];perimeter=orthogonalPerimeter;outlineConnect=0;targetShapes=umlLifeline;portConstraint=eastwest;newEdgeStyle={&quot;curved&quot;:0,&quot;rounded&quot;:0};" parent="QcjXzTzvLksY9jFo9eeE-68" vertex="1">
          <mxGeometry x="90" y="850" width="10" height="80" as="geometry" />
        </mxCell>
        <mxCell id="QcjXzTzvLksY9jFo9eeE-70" value="sender_-&amp;gt;send(msgToSend, max_blocking_time_is_set_ ? max_blocking_time_point_ : (std::chrono::steady_clock::now() + std::chrono::hours(24))" style="html=1;verticalAlign=bottom;endArrow=block;curved=0;rounded=0;" parent="1" edge="1">
          <mxGeometry width="80" relative="1" as="geometry">
            <mxPoint x="1285" y="1070" as="sourcePoint" />
            <mxPoint x="1400" y="1070" as="targetPoint" />
          </mxGeometry>
        </mxCell>
        <mxCell id="QcjXzTzvLksY9jFo9eeE-71" value="writer_.send_nts(message, *this, max_blocking_time_point)" style="html=1;verticalAlign=bottom;endArrow=block;curved=0;rounded=0;" parent="1" edge="1">
          <mxGeometry width="80" relative="1" as="geometry">
            <mxPoint x="1400" y="1120" as="sourcePoint" />
            <mxPoint x="775" y="1120" as="targetPoint" />
          </mxGeometry>
        </mxCell>
        <mxCell id="QcjXzTzvLksY9jFo9eeE-74" value="transport.send(data, dataSize, socket_, destination_locators_begin, destination_locators_end, only_multicast_purpose_, whitelisted_, max_blocking_time_point)" style="html=1;verticalAlign=bottom;endArrow=block;curved=0;rounded=0;" parent="1" edge="1">
          <mxGeometry width="80" relative="1" as="geometry">
            <mxPoint x="1795" y="1240" as="sourcePoint" />
            <mxPoint x="1970" y="1240" as="targetPoint" />
          </mxGeometry>
        </mxCell>
        <mxCell id="QcjXzTzvLksY9jFo9eeE-77" value="getSocketPtr(socket)-&amp;gt;send_to(asio::buffer(send_buffer, send_buffer_size), destinationEndpoint, 0, ec)" style="html=1;verticalAlign=bottom;endArrow=block;curved=0;rounded=0;" parent="1" edge="1">
          <mxGeometry width="80" relative="1" as="geometry">
            <mxPoint x="1983" y="1290" as="sourcePoint" />
            <mxPoint x="2153" y="1290" as="targetPoint" />
          </mxGeometry>
        </mxCell>
        <mxCell id="QcjXzTzvLksY9jFo9eeE-79" value="数据通过asio接口从网络发送出去了" style="text;html=1;align=center;verticalAlign=middle;whiteSpace=wrap;rounded=0;" parent="1" vertex="1">
          <mxGeometry x="2350" y="1270" width="140" height="80" as="geometry" />
        </mxCell>
        <mxCell id="QcjXzTzvLksY9jFo9eeE-80" value="" style="endArrow=none;html=1;rounded=0;" parent="1" source="QcjXzTzvLksY9jFo9eeE-79" edge="1">
          <mxGeometry width="50" height="50" relative="1" as="geometry">
            <mxPoint x="1950" y="1430" as="sourcePoint" />
            <mxPoint x="2160" y="1310" as="targetPoint" />
          </mxGeometry>
        </mxCell>
        <mxCell id="QcjXzTzvLksY9jFo9eeE-81" value="" style="endArrow=none;html=1;rounded=0;entryX=0.298;entryY=0.912;entryDx=0;entryDy=0;entryPerimeter=0;" parent="1" target="QcjXzTzvLksY9jFo9eeE-26" edge="1">
          <mxGeometry width="50" height="50" relative="1" as="geometry">
            <mxPoint x="2230" y="210" as="sourcePoint" />
            <mxPoint x="1970" y="190" as="targetPoint" />
          </mxGeometry>
        </mxCell>
        <mxCell id="bo4RvR0ZCLWzbLEnOBEk-1" value=":HelloWorldPublisher" style="shape=umlLifeline;perimeter=lifelinePerimeter;whiteSpace=wrap;html=1;container=1;dropTarget=0;collapsible=0;recursiveResize=0;outlineConnect=0;portConstraint=eastwest;newEdgeStyle={&quot;curved&quot;:0,&quot;rounded&quot;:0};" vertex="1" parent="1">
          <mxGeometry x="10" y="200" width="140" height="300" as="geometry" />
        </mxCell>
        <mxCell id="bo4RvR0ZCLWzbLEnOBEk-2" value="" style="html=1;points=[[0,0,0,0,5],[0,1,0,0,-5],[1,0,0,0,5],[1,1,0,0,-5]];perimeter=orthogonalPerimeter;outlineConnect=0;targetShapes=umlLifeline;portConstraint=eastwest;newEdgeStyle={&quot;curved&quot;:0,&quot;rounded&quot;:0};" vertex="1" parent="bo4RvR0ZCLWzbLEnOBEk-1">
          <mxGeometry x="65" y="70" width="10" height="80" as="geometry" />
        </mxCell>
      </root>
    </mxGraphModel>
  </diagram>
</mxfile>
